<mxfile host="app.diagrams.net" modified="2022-06-20T06:05:25.530Z" agent="5.0 (Macintosh; Intel Mac OS X 10_15_7) AppleWebKit/537.36 (KHTML, like Gecko) Chrome/102.0.0.0 Safari/537.36" etag="7wQFndeZiNg_p0DVnTch" version="20.0.1" type="github">
  <diagram id="5p9lplLrNbtH9UyTV7KS" name="Page-1">
    <mxGraphModel dx="1183" dy="736" grid="1" gridSize="10" guides="1" tooltips="1" connect="1" arrows="1" fold="1" page="1" pageScale="1" pageWidth="827" pageHeight="1169" math="0" shadow="0">
      <root>
        <mxCell id="0" />
        <mxCell id="1" parent="0" />
        <mxCell id="5Ke7elrdcbhmPCBsYScA-11" style="edgeStyle=orthogonalEdgeStyle;rounded=0;orthogonalLoop=1;jettySize=auto;html=1;exitX=0.5;exitY=1;exitDx=0;exitDy=0;entryX=0.5;entryY=0;entryDx=0;entryDy=0;" edge="1" parent="1" source="5Ke7elrdcbhmPCBsYScA-4" target="5Ke7elrdcbhmPCBsYScA-5">
          <mxGeometry relative="1" as="geometry" />
        </mxCell>
        <mxCell id="5Ke7elrdcbhmPCBsYScA-12" style="edgeStyle=orthogonalEdgeStyle;rounded=0;orthogonalLoop=1;jettySize=auto;html=1;exitX=0.5;exitY=1;exitDx=0;exitDy=0;entryX=0.5;entryY=0;entryDx=0;entryDy=0;" edge="1" parent="1" source="5Ke7elrdcbhmPCBsYScA-4" target="5Ke7elrdcbhmPCBsYScA-6">
          <mxGeometry relative="1" as="geometry" />
        </mxCell>
        <mxCell id="5Ke7elrdcbhmPCBsYScA-14" style="edgeStyle=orthogonalEdgeStyle;rounded=0;orthogonalLoop=1;jettySize=auto;html=1;exitX=0.5;exitY=1;exitDx=0;exitDy=0;entryX=0.5;entryY=0;entryDx=0;entryDy=0;" edge="1" parent="1" source="5Ke7elrdcbhmPCBsYScA-4" target="5Ke7elrdcbhmPCBsYScA-7">
          <mxGeometry relative="1" as="geometry" />
        </mxCell>
        <mxCell id="5Ke7elrdcbhmPCBsYScA-15" style="edgeStyle=orthogonalEdgeStyle;rounded=0;orthogonalLoop=1;jettySize=auto;html=1;exitX=0.5;exitY=1;exitDx=0;exitDy=0;" edge="1" parent="1" source="5Ke7elrdcbhmPCBsYScA-4" target="5Ke7elrdcbhmPCBsYScA-8">
          <mxGeometry relative="1" as="geometry" />
        </mxCell>
        <mxCell id="5Ke7elrdcbhmPCBsYScA-16" style="edgeStyle=orthogonalEdgeStyle;rounded=0;orthogonalLoop=1;jettySize=auto;html=1;exitX=0.5;exitY=1;exitDx=0;exitDy=0;entryX=0.5;entryY=0;entryDx=0;entryDy=0;" edge="1" parent="1" source="5Ke7elrdcbhmPCBsYScA-4" target="5Ke7elrdcbhmPCBsYScA-9">
          <mxGeometry relative="1" as="geometry" />
        </mxCell>
        <mxCell id="5Ke7elrdcbhmPCBsYScA-4" value="SISB" style="ellipse;whiteSpace=wrap;html=1;aspect=fixed;" vertex="1" parent="1">
          <mxGeometry x="374" y="30" width="80" height="80" as="geometry" />
        </mxCell>
        <mxCell id="5Ke7elrdcbhmPCBsYScA-5" value="" style="ellipse;whiteSpace=wrap;html=1;aspect=fixed;" vertex="1" parent="1">
          <mxGeometry x="130" y="190" width="80" height="80" as="geometry" />
        </mxCell>
        <mxCell id="5Ke7elrdcbhmPCBsYScA-6" value="" style="ellipse;whiteSpace=wrap;html=1;aspect=fixed;" vertex="1" parent="1">
          <mxGeometry x="250" y="190" width="80" height="80" as="geometry" />
        </mxCell>
        <mxCell id="5Ke7elrdcbhmPCBsYScA-7" value="" style="ellipse;whiteSpace=wrap;html=1;aspect=fixed;" vertex="1" parent="1">
          <mxGeometry x="374" y="190" width="80" height="80" as="geometry" />
        </mxCell>
        <mxCell id="5Ke7elrdcbhmPCBsYScA-8" value="" style="ellipse;whiteSpace=wrap;html=1;aspect=fixed;" vertex="1" parent="1">
          <mxGeometry x="500" y="190" width="80" height="80" as="geometry" />
        </mxCell>
        <mxCell id="5Ke7elrdcbhmPCBsYScA-9" value="" style="ellipse;whiteSpace=wrap;html=1;aspect=fixed;" vertex="1" parent="1">
          <mxGeometry x="630" y="190" width="80" height="80" as="geometry" />
        </mxCell>
      </root>
    </mxGraphModel>
  </diagram>
</mxfile>
